<svg width="17" height="16" viewBox="0 0 17 16" fill="none" xmlns="http://www.w3.org/2000/svg">
<path fill-rule="evenodd" clip-rule="evenodd" d="M9.83398 0C11.6749 0 13.1673 1.49239 13.1673 3.33333V11.3333C13.1673 13.9107 11.078 16 8.50065 16C5.92332 16 3.83398 13.9107 3.83398 11.3333V6H5.16732V11.3333C5.16732 13.1743 6.6597 14.6667 8.50065 14.6667C10.3416 14.6667 11.834 13.1743 11.834 11.3333V3.33333C11.834 2.22877 10.9386 1.33333 9.83398 1.33333C8.72938 1.33333 7.83398 2.22877 7.83398 3.33333V11.3333C7.83398 11.7015 8.13245 12 8.50065 12C8.86885 12 9.16732 11.7015 9.16732 11.3333V4H10.5007V11.3333C10.5007 12.4379 9.60525 13.3333 8.50065 13.3333C7.39605 13.3333 6.50065 12.4379 6.50065 11.3333V3.33333C6.50065 1.49239 7.99305 0 9.83398 0Z" fill="white"/>
</svg>
