<svg width="15" height="15" viewBox="0 0 15 15" fill="none" xmlns="http://www.w3.org/2000/svg">
<path fill-rule="evenodd" clip-rule="evenodd" d="M9.33398 0C11.1749 0 12.6673 1.49239 12.6673 3.33333V11.3333C12.6673 13.9107 10.578 16 8.00065 16C5.42332 16 3.33398 13.9107 3.33398 11.3333V6H4.66732V11.3333C4.66732 13.1743 6.1597 14.6667 8.00065 14.6667C9.84158 14.6667 11.334 13.1743 11.334 11.3333V3.33333C11.334 2.22877 10.4386 1.33333 9.33398 1.33333C8.22938 1.33333 7.33398 2.22877 7.33398 3.33333V11.3333C7.33398 11.7015 7.63245 12 8.00065 12C8.36885 12 8.66732 11.7015 8.66732 11.3333V4H10.0007V11.3333C10.0007 12.4379 9.10525 13.3333 8.00065 13.3333C6.89605 13.3333 6.00065 12.4379 6.00065 11.3333V3.33333C6.00065 1.49239 7.49305 0 9.33398 0Z" fill="#6C688A"/>
</svg>
