<svg width="16" height="9" viewBox="0 0 16 9" fill="none" xmlns="http://www.w3.org/2000/svg">
<path d="M1.9107 0.828808L8.0002 6.9183L14.0897 0.828809C14.2133 0.709445 14.3788 0.643397 14.5506 0.64489C14.7224 0.646383 14.8868 0.715299 15.0083 0.836792C15.1298 0.958286 15.1987 1.12264 15.2002 1.29445C15.2017 1.46626 15.1356 1.63179 15.0163 1.75537L8.46348 8.30814C8.34059 8.43099 8.17395 8.5 8.0002 8.5C7.82644 8.5 7.6598 8.43099 7.53691 8.30814L0.98414 1.75537C0.864775 1.63178 0.798728 1.46626 0.80022 1.29445C0.801714 1.12264 0.870629 0.958285 0.992122 0.836791C1.11362 0.715297 1.27797 0.646382 1.44978 0.644889C1.62159 0.643396 1.78712 0.709444 1.9107 0.828808Z" fill="#FF3F40"/>
</svg>
