<svg width="22" height="19" viewBox="0 0 22 19" fill="none" xmlns="http://www.w3.org/2000/svg">
<path d="M20.3315 8.67192H3.75299L9.38904 2.65847C9.58928 2.44441 9.70178 2.15409 9.70178 1.85137C9.70178 1.54865 9.58928 1.25833 9.38904 1.04427C9.18879 0.830216 8.91721 0.709961 8.63402 0.709961C8.35083 0.709961 8.07924 0.830216 7.879 1.04427L0.435159 9.00158C0.335488 9.10726 0.256376 9.23299 0.202389 9.37151C0.148401 9.51004 0.120605 9.65862 0.120605 9.80868C0.120605 9.95875 0.148401 10.1073 0.202389 10.2459C0.256376 10.3844 0.335488 10.5101 0.435159 10.6158L7.879 18.5731C7.97786 18.6796 8.09547 18.7642 8.22506 18.8219C8.35464 18.8796 8.49364 18.9093 8.63402 18.9093C8.7744 18.9093 8.91339 18.8796 9.04298 18.8219C9.17257 18.7642 9.29018 18.6796 9.38904 18.5731C9.48871 18.4674 9.56782 18.3417 9.62181 18.2032C9.6758 18.0646 9.70359 17.9161 9.70359 17.766C9.70359 17.6159 9.6758 17.4673 9.62181 17.3288C9.56782 17.1903 9.48871 17.0646 9.38904 16.9589L3.75299 10.9454H20.3315C20.6135 10.9454 20.884 10.8257 21.0834 10.6125C21.2829 10.3993 21.3949 10.1102 21.3949 9.80868C21.3949 9.50719 21.2829 9.21806 21.0834 9.00487C20.884 8.79169 20.6135 8.67192 20.3315 8.67192Z" fill="#00A389"/>
</svg>
