<svg width="23" height="19" viewBox="0 0 23 19" fill="none" xmlns="http://www.w3.org/2000/svg">
<path d="M1.92327 10.9454H18.5018L12.8657 16.9589C12.7661 17.0646 12.6869 17.1903 12.633 17.3288C12.579 17.4673 12.5512 17.6159 12.5512 17.766C12.5512 17.9161 12.579 18.0646 12.633 18.2032C12.6869 18.3417 12.7661 18.4674 12.8657 18.5731C12.9646 18.6796 13.0822 18.7642 13.2118 18.8219C13.3414 18.8796 13.4804 18.9093 13.6207 18.9093C13.7611 18.9093 13.9001 18.8796 14.0297 18.8219C14.1593 18.7642 14.2769 18.6796 14.3758 18.5731L21.8196 10.6158C21.9193 10.5101 21.9984 10.3844 22.0524 10.2459C22.1064 10.1073 22.1342 9.95875 22.1342 9.80868C22.1342 9.65862 22.1064 9.51004 22.0524 9.37151C21.9984 9.23299 21.9193 9.10726 21.8196 9.00158L14.3758 1.04427C14.2766 0.938283 14.1589 0.854207 14.0294 0.796846C13.8998 0.739485 13.761 0.709961 13.6207 0.709961C13.3376 0.709961 13.066 0.830216 12.8657 1.04427C12.7666 1.15026 12.6879 1.27609 12.6343 1.41457C12.5806 1.55305 12.553 1.70148 12.553 1.85137C12.553 2.15409 12.6655 2.44441 12.8657 2.65847L18.5018 8.67192H1.92327C1.64124 8.67192 1.37076 8.79169 1.17133 9.00487C0.9719 9.21806 0.859863 9.50719 0.859863 9.80868C0.859863 10.1102 0.9719 10.3993 1.17133 10.6125C1.37076 10.8257 1.64124 10.9454 1.92327 10.9454Z" fill="#00A389"/>
</svg>
