<svg width="17" height="17" viewBox="0 0 17 17" fill="none" xmlns="http://www.w3.org/2000/svg">
<path d="M16.1821 0.319899C16.1019 0.233906 16.0001 0.17446 15.8891 0.148678C15.778 0.122895 15.6624 0.131867 15.556 0.174521L1.86522 5.66285C1.61633 5.76161 1.39993 5.93608 1.24269 6.16475C1.08546 6.39341 0.994274 6.66627 0.98038 6.94968C0.966486 7.23308 1.03049 7.51464 1.1645 7.75962C1.29852 8.0046 1.49667 8.20229 1.73454 8.32832L6.37145 10.8067L8.6899 15.7635C8.80089 16.0063 8.97376 16.2107 9.18861 16.3531C9.40347 16.4956 9.65158 16.5703 9.90441 16.5687H9.9795C10.2449 16.5562 10.5008 16.4601 10.7152 16.2924C10.9295 16.1247 11.0926 15.8929 11.184 15.6263L16.3181 0.988637C16.3579 0.874976 16.3663 0.751476 16.3421 0.632891C16.318 0.514306 16.2625 0.405649 16.1821 0.319899ZM10.0765 15.1781C10.0656 15.2143 10.0444 15.246 10.0159 15.2686C9.9874 15.2913 9.95296 15.3039 9.91742 15.3046C9.88249 15.3067 9.84774 15.2978 9.81754 15.2789C9.78735 15.26 9.76305 15.232 9.74772 15.1984L7.53156 10.4578L10.2692 7.53127C10.3769 7.41206 10.4365 7.2524 10.4352 7.08667C10.4338 6.92094 10.3717 6.76241 10.262 6.64521C10.1524 6.52802 10.0041 6.46155 9.84906 6.46011C9.69403 6.45867 9.54467 6.52238 9.43315 6.63752L6.69547 9.56403L2.26375 7.19817C2.23162 7.18225 2.20469 7.15642 2.18642 7.124C2.16814 7.09158 2.15936 7.05405 2.16121 7.01626C2.16305 6.97846 2.17544 6.94211 2.19677 6.9119C2.2181 6.88169 2.2474 6.85899 2.28089 6.84673L14.7536 1.847L10.0765 15.1781Z" fill="#464255"/>
</svg>
