<svg width="18" height="19" viewBox="0 0 18 19" fill="none" xmlns="http://www.w3.org/2000/svg">
<path d="M13.3886 2.92878C13.3242 2.86003 13.2479 2.80549 13.1638 2.76828C13.0798 2.73107 12.9897 2.71191 12.8988 2.71191C12.7151 2.71191 12.5389 2.78992 12.409 2.92878C12.2791 3.06764 12.2061 3.25598 12.2061 3.45236C12.2061 3.64873 12.2791 3.83707 12.409 3.97593L13.3058 4.9272H2.55117C2.36821 4.9272 2.19275 5.0049 2.06338 5.14319C1.93401 5.28148 1.86133 5.46905 1.86133 5.66463C1.86133 5.8602 1.93401 6.04777 2.06338 6.18606C2.19275 6.32436 2.36821 6.40205 2.55117 6.40205H13.3058L12.409 7.35333C12.3443 7.42188 12.293 7.50344 12.258 7.5933C12.223 7.68317 12.2049 7.77955 12.2049 7.8769C12.2049 7.97425 12.223 8.07063 12.258 8.1605C12.293 8.25036 12.3443 8.33192 12.409 8.40047C12.4731 8.46959 12.5494 8.52445 12.6335 8.56189C12.7175 8.59932 12.8077 8.6186 12.8988 8.6186C12.9898 8.6186 13.08 8.59932 13.1641 8.56189C13.2481 8.52445 13.3244 8.46959 13.3886 8.40047L15.4581 6.1882C15.5227 6.11965 15.5741 6.03809 15.6091 5.94822C15.6441 5.85836 15.6621 5.76198 15.6621 5.66463C15.6621 5.56728 15.6441 5.47089 15.6091 5.38103C15.5741 5.29117 15.5227 5.20961 15.4581 5.14106L13.3886 2.92878Z" fill="#464255"/>
<path d="M14.9679 12.3012H4.21329L5.11008 11.35C5.23998 11.2111 5.31295 11.0228 5.31295 10.8264C5.31295 10.63 5.23998 10.4417 5.11008 10.3028C4.98018 10.1639 4.804 10.0859 4.62029 10.0859C4.43659 10.0859 4.2604 10.1639 4.13051 10.3028L2.06099 12.5151C1.99633 12.5836 1.94501 12.6652 1.90999 12.7551C1.87496 12.8449 1.85693 12.9413 1.85693 13.0387C1.85693 13.136 1.87496 13.2324 1.90999 13.3222C1.94501 13.4121 1.99633 13.4937 2.06099 13.5622L4.13051 15.7745C4.19463 15.8436 4.27093 15.8985 4.35499 15.9359C4.43906 15.9734 4.52922 15.9926 4.62029 15.9926C4.71136 15.9926 4.80152 15.9734 4.88559 15.9359C4.96965 15.8985 5.04595 15.8436 5.11008 15.7745C5.17473 15.7059 5.22605 15.6244 5.26108 15.5345C5.2961 15.4447 5.31413 15.3483 5.31413 15.2509C5.31413 15.1536 5.2961 15.0572 5.26108 14.9673C5.22605 14.8775 5.17473 14.7959 5.11008 14.7274L4.21329 13.7761H14.9679C15.1508 13.7761 15.3263 13.6984 15.4557 13.5601C15.585 13.4218 15.6577 13.2342 15.6577 13.0387C15.6577 12.8431 15.585 12.6555 15.4557 12.5172C15.3263 12.3789 15.1508 12.3012 14.9679 12.3012Z" fill="#464255"/>
</svg>
