<svg width="10" height="12" viewBox="0 0 10 12" fill="none" xmlns="http://www.w3.org/2000/svg">
<g opacity="0.6">
<path fill-rule="evenodd" clip-rule="evenodd" d="M9.57574 2.45256C9.77997 2.45256 9.95 2.62213 9.95 2.8379V3.0374C9.95 3.24793 9.77997 3.42275 9.57574 3.42275H0.874773C0.670026 3.42275 0.5 3.24793 0.5 3.0374V2.8379C0.5 2.62213 0.670026 2.45256 0.874773 2.45256H2.40552C2.71647 2.45256 2.98708 2.23154 3.05703 1.91969L3.1372 1.56164C3.26178 1.07392 3.67179 0.75 4.14102 0.75H6.30898C6.77311 0.75 7.18771 1.07392 7.3077 1.53592L7.39348 1.91916C7.46292 2.23154 7.73353 2.45256 8.04499 2.45256H9.57574ZM8.79798 9.74536C8.9578 8.25595 9.2376 4.71749 9.2376 4.68179C9.24781 4.57364 9.21258 4.47126 9.14263 4.38884C9.06757 4.31167 8.9726 4.26599 8.86793 4.26599H1.5859C1.48072 4.26599 1.38064 4.31167 1.3112 4.38884C1.24074 4.47126 1.20602 4.57364 1.21112 4.68179C1.21206 4.68835 1.2221 4.81299 1.23889 5.02137C1.31345 5.94707 1.52114 8.52534 1.65534 9.74536C1.75031 10.6442 2.34004 11.209 3.19426 11.2295C3.85343 11.2447 4.53251 11.25 5.22692 11.25C5.88098 11.25 6.54526 11.2447 7.22485 11.2295C8.10869 11.2143 8.69791 10.6594 8.79798 9.74536Z" fill="#6C688A"/>
</g>
</svg>
