<svg width="80" height="77" viewBox="0 0 80 77" fill="none" xmlns="http://www.w3.org/2000/svg">
<path d="M40 76.7846C62.0914 76.7846 80 59.6865 80 38.5949C80 17.5034 62.0914 0.405273 40 0.405273C17.9086 0.405273 0 17.5034 0 38.5949C0 59.6865 17.9086 76.7846 40 76.7846Z" fill="url(#paint0_linear_2092_2371)"/>
<path d="M46.8055 22.3643H34.1945C28.569 22.3643 24 26.7265 24 32.0973V44.1376C24 49.5085 28.569 53.8707 34.1945 53.8707H46.8055C52.431 53.8707 57 49.5085 57 44.1376V32.0973C57 26.7265 52.431 22.3643 46.8055 22.3643ZM53.3157 44.1502C53.3157 47.5795 50.3974 50.3784 46.7923 50.3784H34.1813C30.5894 50.3784 27.6579 47.5921 27.6579 44.1502V32.11C27.6579 28.6807 30.5762 25.8818 34.1813 25.8818H46.7923C50.3842 25.8818 53.3157 28.6681 53.3157 32.11V44.1502Z" fill="#FBF0D3"/>
<path d="M40.4929 30.0674C35.8446 30.0674 32.0547 33.6858 32.0547 38.1237C32.0547 42.5615 35.8446 46.1799 40.4929 46.1799C45.1411 46.1799 48.931 42.5615 48.931 38.1237C48.931 33.6858 45.1411 30.0674 40.4929 30.0674ZM40.4929 43.0154C37.6669 43.0154 35.3692 40.8217 35.3692 38.1237C35.3692 35.4256 37.6669 33.2319 40.4929 33.2319C43.3188 33.2319 45.6165 35.4256 45.6165 38.1237C45.6165 40.8217 43.3188 43.0154 40.4929 43.0154Z" fill="#FBF0D3"/>
<path d="M49.5751 30.9504C50.3525 30.8295 50.8801 30.1298 50.7535 29.3876C50.6269 28.6454 49.894 28.1417 49.1166 28.2626C48.3392 28.3835 47.8116 29.0831 47.9382 29.8254C48.0648 30.5676 48.7977 31.0713 49.5751 30.9504Z" fill="#FBF0D3"/>
<defs>
<linearGradient id="paint0_linear_2092_2371" x1="9.54293" y1="67.6736" x2="63.7565" y2="10.89" gradientUnits="userSpaceOnUse">
<stop stop-color="#FEE411"/>
<stop offset="0.052" stop-color="#FEDB16"/>
<stop offset="0.138" stop-color="#FEC125"/>
<stop offset="0.248" stop-color="#FE983D"/>
<stop offset="0.376" stop-color="#FE5F5E"/>
<stop offset="0.5" stop-color="#FE2181"/>
<stop offset="1" stop-color="#9000DC"/>
</linearGradient>
</defs>
</svg>
